<?xml version="1.0" encoding="UTF-8"?><!DOCTYPE svg PUBLIC "-//W3C//DTD SVG 1.1//EN" "http://www.w3.org/Graphics/SVG/1.1/DTD/svg11.dtd"><svg xmlns="http://www.w3.org/2000/svg" xmlns:xlink="http://www.w3.org/1999/xlink"><defs>
<clipPath id="clip0_8_47">
<rect width="19" height="20" fill="white"/>
</clipPath>

<clipPath id="clip0_8_39">
<rect width="15" height="16" fill="currentColor"/>
</clipPath>
</defs><symbol id="like" viewBox="0 0 66.831 66.831"><g fill="currentColor">
<g>
	<path d="M51.735,20h-2.934c1.419-3.934,2.799-9.714,0.942-14.247c-1.095-2.673-3.177-4.574-6.021-5.496
		C43.197,0.086,42.651,0,42.101,0c-3.701,0-7.05,3.613-11.944,12.888c-2.199,4.171-5.364,7.683-7.593,9.577
		c-0.946,0.804-1.702,1.624-2.315,2.431c-1.69-2.512-4.558-4.167-7.806-4.167c-5.185,0-9.404,4.219-9.404,9.404v27.294
		c0,5.186,4.219,9.404,9.404,9.404c3.406,0,6.386-1.827,8.036-4.546c2.212,2.728,5.586,4.477,9.364,4.477h23.023
		c9.507,0,10.926-6.136,10.926-9.793v-24.91C63.793,25.41,58.384,20,51.735,20z M15.847,57.427c0,1.877-1.527,3.404-3.403,3.404
		c-1.877,0-3.404-1.527-3.404-3.404V30.133c0-1.877,1.527-3.404,3.404-3.404c1.876,0,3.403,1.527,3.403,3.404V57.427z
		 M57.793,56.969c0,2.221-0.354,3.793-4.926,3.793H29.844c-3.34,0-6.058-2.717-6.058-6.057V32.059l0.008-0.095l-0.021-0.176
		c-0.006-0.096-0.106-2.386,2.676-4.75c2.656-2.258,6.419-6.425,9.015-11.351c4.132-7.83,6.104-9.353,6.639-9.641
		c1.039,0.388,1.688,1.007,2.087,1.981c1.293,3.156-0.331,9.224-2.603,13.587l-2.283,4.385h12.43c3.341,0,6.059,2.718,6.059,6.059
		V56.969z"/>
</g>
<g>
</g>
<g>
</g>
<g>
</g>
<g>
</g>
<g>
</g>
<g>
</g>
<g>
</g>
<g>
</g>
<g>
</g>
<g>
</g>
<g>
</g>
<g>
</g>
<g>
</g>
<g>
</g>
<g>
</g>
</g></symbol><symbol id="premium" viewBox="0 0 246.989 246.989"><g fill="currentColor">
<path d="M246.038,83.955l-39.424-70.664c-1.325-2.374-3.831-3.846-6.55-3.846H46.93c-2.719,0-5.225,1.471-6.55,3.846L0.951,83.955
	c-1.497,2.683-1.206,6.008,0.734,8.391l116.002,142.432c0.037,0.046,0.08,0.085,0.118,0.13c0.12,0.141,0.244,0.278,0.375,0.41
	c0.015,0.015,0.028,0.033,0.043,0.048c0.034,0.033,0.069,0.064,0.104,0.096c0.012,0.012,0.025,0.021,0.037,0.033
	c0.133,0.125,0.27,0.245,0.412,0.361c0.065,0.053,0.131,0.106,0.198,0.157c0.145,0.11,0.295,0.213,0.448,0.313
	c0.072,0.047,0.143,0.094,0.216,0.139c0.129,0.077,0.263,0.148,0.397,0.219c0.055,0.028,0.108,0.059,0.164,0.086
	c0.051,0.025,0.101,0.05,0.152,0.074c0.149,0.069,0.303,0.128,0.459,0.188c0.097,0.038,0.192,0.079,0.291,0.113
	c0.019,0.006,0.035,0.015,0.054,0.021c0.007,0.002,0.014,0.003,0.021,0.005c0.066,0.022,0.137,0.034,0.205,0.054
	c0.253,0.075,0.51,0.136,0.77,0.184c0.108,0.02,0.215,0.04,0.324,0.055c0.309,0.043,0.622,0.07,0.938,0.074
	c0.029,0,0.058,0.007,0.088,0.007h0.001h0.001c0.03,0,0.059-0.007,0.088-0.007c0.317-0.004,0.63-0.031,0.939-0.074
	c0.108-0.015,0.214-0.035,0.321-0.054c0.263-0.048,0.522-0.11,0.776-0.186c0.065-0.019,0.133-0.031,0.198-0.052
	c0.008-0.003,0.016-0.003,0.023-0.006c0.02-0.006,0.036-0.015,0.055-0.022c0.098-0.033,0.191-0.074,0.287-0.11
	c0.156-0.06,0.312-0.12,0.462-0.189c0.052-0.024,0.104-0.05,0.155-0.075c0.053-0.026,0.104-0.056,0.155-0.082
	c0.136-0.071,0.271-0.143,0.401-0.221c0.074-0.045,0.146-0.093,0.22-0.141c0.152-0.099,0.302-0.202,0.444-0.311
	c0.068-0.051,0.134-0.104,0.199-0.158c0.144-0.116,0.281-0.237,0.414-0.362c0.013-0.013,0.027-0.023,0.04-0.035
	c0.03-0.029,0.062-0.056,0.092-0.086c0.017-0.017,0.032-0.036,0.049-0.053c0.134-0.135,0.261-0.276,0.383-0.42
	c0.036-0.042,0.076-0.079,0.111-0.122L245.304,92.346C247.244,89.963,247.535,86.638,246.038,83.955z M138.3,24.446l21.242,55.664
	H87.457l21.249-55.664H138.3z M160.065,95.11l-36.563,110.967L86.935,95.11H160.065z M71.142,95.11l32.524,98.699L23.282,95.11
	H71.142z M175.858,95.11h47.851l-80.37,98.696L175.858,95.11z M226.715,80.11h-51.118l-21.242-55.664h41.306L226.715,80.11z
	 M51.333,24.446h41.317L71.402,80.11H20.274L51.333,24.446z"/>
<g>
</g>
<g>
</g>
<g>
</g>
<g>
</g>
<g>
</g>
<g>
</g>
<g>
</g>
<g>
</g>
<g>
</g>
<g>
</g>
<g>
</g>
<g>
</g>
<g>
</g>
<g>
</g>
<g>
</g>
</g></symbol><symbol id="telegram" viewBox="0 0 19 20"><g fill="currentColor">
<g clip-path="url(#clip0_8_47)">
<path d="M7.45514 12.6508L7.14085 17.3041C7.59052 17.3041 7.78527 17.1008 8.01881 16.8566L10.127 14.7358L14.4954 18.1033C15.2966 18.5733 15.8611 18.3258 16.0772 17.3274L18.9446 3.1841L18.9454 3.18326C19.1995 1.9366 18.5171 1.4491 17.7365 1.75493L0.881935 8.54743C-0.268356 9.01743 -0.25094 9.69243 0.686394 9.99826L4.99544 11.4091L15.0045 4.8166C15.4755 4.48826 15.9038 4.66993 15.5515 4.99826L7.45514 12.6508Z" fill="currentColor"/>
</g>

</g></symbol><symbol id="whatsapp" viewBox="0 0 15 16"><g fill="currentColor">
<g clip-path="url(#clip0_8_39)">
<path d="M7.50187 0H7.49813C3.36281 0 0 3.588 0 8C0 9.75 0.52875 11.372 1.42781 12.689L0.493125 15.661L3.37594 14.678C4.56187 15.516 5.97656 16 7.50187 16C11.6372 16 15 12.411 15 8C15 3.589 11.6372 0 7.50187 0ZM11.8659 11.297C11.685 11.842 10.9669 12.294 10.3941 12.426C10.0022 12.515 9.49031 12.586 7.76719 11.824C5.56312 10.85 4.14375 8.461 4.03312 8.306C3.92719 8.151 3.1425 7.041 3.1425 5.893C3.1425 4.745 3.68906 4.186 3.90938 3.946C4.09031 3.749 4.38937 3.659 4.67625 3.659C4.76906 3.659 4.8525 3.664 4.9275 3.668C5.14781 3.678 5.25844 3.692 5.40375 4.063C5.58469 4.528 6.02531 5.676 6.07781 5.794C6.13125 5.912 6.18469 6.072 6.10969 6.227C6.03938 6.387 5.9775 6.458 5.86687 6.594C5.75625 6.73 5.65125 6.834 5.54062 6.98C5.43937 7.107 5.325 7.243 5.4525 7.478C5.58 7.708 6.02063 8.475 6.66937 9.091C7.50656 9.886 8.18531 10.14 8.42812 10.248C8.60906 10.328 8.82469 10.309 8.95687 10.159C9.12469 9.966 9.33187 9.646 9.54281 9.331C9.69281 9.105 9.88219 9.077 10.0809 9.157C10.2834 9.232 11.355 9.797 11.5753 9.914C11.7956 10.032 11.9409 10.088 11.9944 10.187C12.0469 10.286 12.0469 10.751 11.8659 11.297Z" fill="currentColor"/>
</g>

</g></symbol></svg>